<svg width="25" height="24" viewBox="0 0 25 24" fill="none" xmlns="http://www.w3.org/2000/svg">
<g id="Name=Manage, State=False" opacity="0.8">
<path id="Vector" d="M23.305 16.5975C23.5102 17.0079 23.3725 17.5001 23.0004 17.7483L22.9025 17.805L12.9025 22.805C12.6854 22.9136 12.4352 22.9291 12.2086 22.8516L12.0976 22.805L2.09756 17.805C1.65298 17.5827 1.47278 17.0421 1.69507 16.5975C1.90026 16.1872 2.37668 16.0021 2.79843 16.1508L2.90254 16.1951L12.5001 20.994L22.0976 16.1951C22.5421 15.9728 23.0827 16.153 23.305 16.5975ZM23.305 11.5975C23.5102 12.0079 23.3725 12.5001 23.0004 12.7483L22.9025 12.805L12.9025 17.805C12.6854 17.9136 12.4352 17.9291 12.2086 17.8516L12.0976 17.805L2.09756 12.805C1.65298 12.5827 1.47278 12.0421 1.69507 11.5975C1.90026 11.1872 2.37668 11.0021 2.79843 11.1508L2.90254 11.1951L12.5001 15.994L22.0976 11.1951C22.5421 10.9728 23.0827 11.153 23.305 11.5975ZM12.0976 1.19505C12.3509 1.06836 12.6492 1.06836 12.9025 1.19505L22.9025 6.19505C23.5659 6.52672 23.5659 7.47335 22.9025 7.80502L12.9025 12.805C12.6492 12.9317 12.3509 12.9317 12.0976 12.805L2.09756 7.80502C1.43421 7.47335 1.43421 6.52672 2.09756 6.19505L12.0976 1.19505ZM12.5001 3.00504L4.51105 7.00004L12.5001 10.994L20.4881 7.00004L12.5001 3.00504Z" fill="#fffa"/>
</g>
</svg>
