<svg width="25" height="24" viewBox="0 0 25 24" fill="none" xmlns="http://www.w3.org/2000/svg">
<g id="Name=Tutorials, State=False" opacity="0.8" clip-path="url(#clip0_26_3547)">
<path id="Vector" fill-rule="evenodd" clip-rule="evenodd" d="M2.75693 4.73671C2.75693 3.61187 3.6688 2.70001 4.79363 2.70001H20.2065C21.3313 2.70001 22.2432 3.61187 22.2432 4.73671V18.457H23.5092C24.0564 18.457 24.5 18.9006 24.5 19.4478C24.5 19.995 24.0564 20.4386 23.5092 20.4386H1.49083C0.943608 20.4386 0.5 19.995 0.5 19.4478C0.5 18.9006 0.943608 18.457 1.49083 18.457H2.75693V4.73671ZM4.62849 18.457H20.3716V4.73671C20.3716 4.64551 20.2977 4.57157 20.2065 4.57157H4.79363C4.70243 4.57157 4.62849 4.64551 4.62849 4.73671V18.457ZM10.7087 8.36198C10.9628 8.21414 11.2764 8.21261 11.532 8.35796L15.9264 10.857C16.1845 11.0038 16.3439 11.2779 16.3439 11.5748C16.3439 11.8717 16.1845 12.1457 15.9264 12.2925L11.532 14.7916C11.2764 14.937 10.9628 14.9354 10.7087 14.7876C10.4545 14.6397 10.2982 14.3679 10.2982 14.0739V9.0757C10.2982 8.78167 10.4545 8.50983 10.7087 8.36198ZM11.9495 12.6544L13.848 11.5748L11.9495 10.4951V12.6544Z" fill="#fffa"/>
</g>
<defs>
<clipPath id="clip0_26_3547">
<rect width="24" height="24" fill="white" transform="translate(0.5)"/>
</clipPath>
</defs>
</svg>
