<svg width="25" height="24" viewBox="0 0 25 24" fill="none" xmlns="http://www.w3.org/2000/svg">
<g id="Name=Tools, State=False" opacity="0.8">
<path id="Vector" d="M4.62679 4.18996L19.6089 9.86992L14.3772 12.1987C13.6106 12.5299 12.9992 13.1391 12.6667 13.9027L10.3431 19.1141L4.64106 4.18996H4.62679ZM3.07303 1.34998C2.87417 1.35048 2.67838 1.39914 2.50262 1.49181C2.32686 1.58448 2.17636 1.71834 2.06411 1.88187C1.95187 2.04539 1.88117 2.23367 1.85826 2.43044C1.83534 2.62721 1.86088 2.82656 1.93256 3.01134L9.06009 21.8546C9.14766 22.089 9.30533 22.2909 9.51183 22.4332C9.71833 22.5754 9.96379 22.651 10.2148 22.6498C10.4553 22.6536 10.6912 22.5852 10.8921 22.4535C11.0929 22.3218 11.2493 22.1329 11.3409 21.9114L14.5625 14.7121C14.6811 14.4298 14.9065 14.2054 15.1898 14.0873L22.4313 10.8781C22.652 10.7762 22.8377 10.612 22.9654 10.4059C23.0931 10.1997 23.1571 9.96074 23.1495 9.71863C23.1419 9.47653 23.0629 9.24202 22.9226 9.04422C22.7822 8.84641 22.5866 8.69404 22.36 8.6061L3.45777 1.50615C3.3121 1.45067 3.15765 1.42181 3.00169 1.42096L3.07303 1.34998Z" fill="#fffa"/>
</g>
</svg>
