<svg width="25" height="24" viewBox="0 0 25 24" fill="none" xmlns="http://www.w3.org/2000/svg">
<g id="Name=Pages, State=False" opacity="0.8">
<path id="Vector" d="M21.6197 1.875H8.40691C7.97606 1.875 7.68883 2.16429 7.68883 2.74286V7.22679H3.2367C2.66223 7.22679 2.375 7.51607 2.375 7.95V21.2571C2.375 21.6911 2.66223 22.125 3.2367 22.125H16.4495C16.8803 22.125 17.3112 21.6911 17.3112 21.2571V16.7732H21.7633C22.1941 16.7732 22.625 16.4839 22.625 15.9054V2.74286C22.4814 2.16429 22.0505 1.875 21.6197 1.875ZM15.5878 20.2446C15.5878 20.3893 15.4441 20.5339 15.3005 20.5339H4.24202C4.0984 20.5339 3.95479 20.3893 3.95479 20.2446V9.10714C3.95479 8.9625 4.0984 8.81786 4.24202 8.81786H15.3005C15.4441 8.81786 15.5878 8.9625 15.5878 9.10714V20.2446ZM20.9016 14.8929C20.9016 15.0375 20.758 15.1821 20.6144 15.1821H17.4548C17.3112 15.1821 17.1676 15.0375 17.1676 14.8929V7.95C17.1676 7.51607 16.8803 7.08214 16.3059 7.08214H9.55585C9.41223 7.08214 9.26862 6.9375 9.26862 6.79286V3.75536C9.26862 3.61071 9.41223 3.46607 9.55585 3.46607H20.6144C20.758 3.46607 20.9016 3.61071 20.9016 3.75536V14.8929Z" fill="#4D4D4D"/>
</g>
</svg>
