<svg width="25" height="24" viewBox="0 0 25 24" fill="none" xmlns="http://www.w3.org/2000/svg">
<g id="Name=Vendor, State=False" opacity="0.8">
<path id="Vector" fill-rule="evenodd" clip-rule="evenodd" d="M8.1501 3.5375C8.1501 2.23963 9.20223 1.1875 10.5001 1.1875H14.5001C15.798 1.1875 16.8501 2.23963 16.8501 3.5375V7.5375C16.8501 8.83537 15.798 9.8875 14.5001 9.8875H13.3001V12.7375H19.0001C20.2704 12.7375 21.3001 13.7672 21.3001 15.0375V15.7875V17.3796C22.4427 17.723 23.2751 18.783 23.2751 20.0375C23.2751 21.5701 22.0327 22.8125 20.5001 22.8125C18.9675 22.8125 17.7251 21.5701 17.7251 20.0375C17.7251 18.783 18.5575 17.723 19.7001 17.3796V15.7875V15.0375C19.7001 14.6509 19.3867 14.3375 19.0001 14.3375H13.3001V17.3796C14.4427 17.723 15.2751 18.783 15.2751 20.0375C15.2751 21.5701 14.0327 22.8125 12.5001 22.8125C10.9675 22.8125 9.7251 21.5701 9.7251 20.0375C9.7251 18.783 10.5575 17.723 11.7001 17.3796V14.3375H6.0001C5.6135 14.3375 5.3001 14.6509 5.3001 15.0375V17.3796C6.44269 17.723 7.2751 18.783 7.2751 20.0375C7.2751 21.5701 6.03269 22.8125 4.5001 22.8125C2.96751 22.8125 1.7251 21.5701 1.7251 20.0375C1.7251 18.783 2.5575 17.723 3.7001 17.3796V15.0375C3.7001 13.7672 4.72984 12.7375 6.0001 12.7375H11.7001V9.8875H10.5001C9.20223 9.8875 8.1501 8.83537 8.1501 7.5375V3.5375ZM10.5001 2.8875C10.1411 2.8875 9.8501 3.17852 9.8501 3.5375V7.5375C9.8501 7.89648 10.1411 8.1875 10.5001 8.1875H14.5001C14.8591 8.1875 15.1501 7.89648 15.1501 7.5375V3.5375C15.1501 3.17852 14.8591 2.8875 14.5001 2.8875H10.5001ZM4.5001 18.8125C3.82355 18.8125 3.2751 19.361 3.2751 20.0375C3.2751 20.714 3.82355 21.2625 4.5001 21.2625C5.17665 21.2625 5.7251 20.714 5.7251 20.0375C5.7251 19.361 5.17665 18.8125 4.5001 18.8125ZM11.2751 20.0375C11.2751 19.361 11.8235 18.8125 12.5001 18.8125C13.1766 18.8125 13.7251 19.361 13.7251 20.0375C13.7251 20.714 13.1766 21.2625 12.5001 21.2625C11.8235 21.2625 11.2751 20.714 11.2751 20.0375ZM20.5001 18.8125C19.8235 18.8125 19.2751 19.361 19.2751 20.0375C19.2751 20.714 19.8235 21.2625 20.5001 21.2625C21.1766 21.2625 21.7251 20.714 21.7251 20.0375C21.7251 19.361 21.1766 18.8125 20.5001 18.8125Z" fill="#4D4D4D"/>
</g>
</svg>
